<svg width="1322" height="1321" xmlns="http://www.w3.org/2000/svg" xmlns:xlink="http://www.w3.org/1999/xlink" xml:space="preserve" overflow="hidden"><defs><filter id="fx0" x="-10%" y="-10%" width="120%" height="120%" filterUnits="userSpaceOnUse" primitiveUnits="userSpaceOnUse"><feComponentTransfer color-interpolation-filters="sRGB"><feFuncR type="discrete" tableValues="0 0"/><feFuncG type="discrete" tableValues="0 0"/><feFuncB type="discrete" tableValues="0 0"/><feFuncA type="linear" slope="0.4" intercept="0"/></feComponentTransfer><feGaussianBlur stdDeviation="6.11111 6.11111"/></filter><filter id="fx1" x="-10%" y="-10%" width="120%" height="120%" filterUnits="userSpaceOnUse" primitiveUnits="userSpaceOnUse"><feComponentTransfer color-interpolation-filters="sRGB"><feFuncR type="discrete" tableValues="0 0"/><feFuncG type="discrete" tableValues="0 0"/><feFuncB type="discrete" tableValues="0 0"/><feFuncA type="linear" slope="0.4" intercept="0"/></feComponentTransfer><feGaussianBlur stdDeviation="6.11111 6.11111"/></filter><filter id="fx2" x="-10%" y="-10%" width="120%" height="120%" filterUnits="userSpaceOnUse" primitiveUnits="userSpaceOnUse"><feComponentTransfer color-interpolation-filters="sRGB"><feFuncR type="discrete" tableValues="0 0"/><feFuncG type="discrete" tableValues="0 0"/><feFuncB type="discrete" tableValues="0 0"/><feFuncA type="linear" slope="0.4" intercept="0"/></feComponentTransfer><feGaussianBlur stdDeviation="6.11111 6.11111"/></filter></defs><g transform="translate(-332 -577)"><path d="M332 1237.5C332 872.716 627.94 577 993 577 1358.06 577 1654 872.716 1654 1237.5 1654 1602.28 1358.06 1898 993 1898 627.94 1898 332 1602.28 332 1237.5Z" fill="#FF6591" fill-rule="evenodd"/><path d="M1306.99 937.535C1307.54 971.496 1279.56 999.459 1244.5 999.992 1209.43 1000.53 1180.56 973.427 1180.01 939.465 1179.99 938.474 1180 937.483 1180.03 936.493L1196.4 937.011C1195.54 961.917 1215.93 982.775 1241.94 983.598 1267.96 984.42 1289.74 964.896 1290.6 939.989 1290.62 939.254 1290.63 938.519 1290.62 937.784Z" fill="#FF6591" fill-rule="evenodd"/><path d="M818.992 937.535C819.543 971.496 791.563 999.46 756.497 999.993 721.431 1000.53 692.558 973.427 692.008 939.465 691.992 938.475 692 937.484 692.034 936.493L708.403 937.011C707.544 961.918 727.934 982.776 753.945 983.598 779.956 984.421 801.738 964.896 802.597 939.989 802.622 939.254 802.629 938.519 802.617 937.784Z" fill="#FF6591" fill-rule="evenodd"/><path d="M39.6736 0 747.326 0C769.237-1.25244e-14 787 17.7625 787 39.6736L787 561 0 561 0 39.6736C-6.26222e-15 17.7625 17.7625-6.26222e-15 39.6736-1.25244e-14Z" fill="#FF6591" fill-rule="evenodd" transform="matrix(1 0 0 -1 599 1615)"/><g filter="url(#fx0)" transform="translate(558 745)"><g><path d="M432.978 20.0832 433 20.1059 433.021 20.0832 433.021 20.1287 464.624 53.009C530.426 126.725 542.462 178.868 553.413 213.699 608.908 164.706 658.735 152.458 734.774 145.156 751.069 247.146 730.524 329.35 671.015 393.888 738.553 377.165 789.797 390.12 846 411.554 748.589 578.494 578.328 608.802 477.064 542.652L460.194 529.967 460.194 599.606 483.99 600.442C602.711 608.903 692.017 645.49 692.017 689.341 692.017 739.457 575.372 780.083 431.484 780.083 287.595 780.083 170.951 739.457 170.951 689.341 170.951 645.49 260.257 608.903 378.977 600.442L406.492 599.476 406.492 529.451 388.935 542.652C287.672 608.802 117.411 578.494 19.9998 411.554 76.2032 390.12 127.447 377.165 194.985 393.888 135.476 329.35 114.931 247.146 131.225 145.156 207.265 152.458 257.092 164.706 312.586 213.699 323.538 178.868 335.574 126.725 401.376 53.009L432.978 20.1287Z" fill="#FFFFFF" fill-rule="evenodd"/></g></g><path d="M990.978 733 991 733.023 991.021 733 991.021 733.045 1022.62 765.926C1088.43 839.642 1100.46 891.785 1111.41 926.616 1166.91 877.623 1216.73 865.375 1292.77 858.073 1309.07 960.062 1288.52 1042.27 1229.01 1106.8 1296.55 1090.08 1347.8 1103.04 1404 1124.47 1306.59 1291.41 1136.33 1321.72 1035.06 1255.57L1018.19 1242.88 1018.19 1312.52 1041.99 1313.36C1160.71 1321.82 1250.02 1358.41 1250.02 1402.26 1250.02 1452.37 1133.37 1493 989.484 1493 845.595 1493 728.951 1452.37 728.951 1402.26 728.951 1358.41 818.257 1321.82 936.977 1313.36L964.492 1312.39 964.492 1242.37 946.935 1255.57C845.672 1321.72 675.411 1291.41 578 1124.47 634.203 1103.04 685.447 1090.08 752.985 1106.8 693.476 1042.27 672.931 960.062 689.225 858.073 765.265 865.375 815.092 877.623 870.586 926.616 881.538 891.785 893.574 839.642 959.375 765.926L990.978 733.045Z" fill="#FFFFFF" fill-rule="evenodd"/><path d="M910 1067.5C910 1023.04 946.265 987 991 987 1035.74 987 1072 1023.04 1072 1067.5 1072 1111.96 1035.74 1148 991 1148 946.265 1148 910 1111.96 910 1067.5Z" fill="#7C7AE0" fill-rule="evenodd"/><g filter="url(#fx1)" transform="translate(709 1471)"><g><path d="M19.9999 20.0834C19.9999 61.543 136.652 95.1246 280.5 95.1246 424.348 95.1246 541 61.543 541 20.0834L541 105.042C541 146.502 424.348 180.084 280.5 180.084 136.652 180.084 19.9999 146.502 19.9999 105.042L19.9999 20.0834Z" fill="#FFFFFF" fill-rule="evenodd"/></g></g><path d="M729 1459C729 1500.46 845.652 1534.04 989.5 1534.04 1133.35 1534.04 1250 1500.46 1250 1459L1250 1543.96C1250 1585.42 1133.35 1619 989.5 1619 845.652 1619 729 1585.42 729 1543.96L729 1459Z" fill="#FFFFFF" fill-rule="evenodd"/><g filter="url(#fx2)" transform="translate(709 1594)"><g><path d="M19.9999 20.0834C19.9999 61.543 136.652 95.1246 280.5 95.1246 424.348 95.1246 541 61.543 541 20.0834L541 105.042C541 146.502 424.348 180.084 280.5 180.084 136.652 180.084 19.9999 146.502 19.9999 105.042L19.9999 20.0834Z" fill="#FFFFFF" fill-rule="evenodd"/></g></g><path d="M729 1582C729 1623.46 845.652 1657.04 989.5 1657.04 1133.35 1657.04 1250 1623.46 1250 1582L1250 1666.96C1250 1708.42 1133.35 1742 989.5 1742 845.652 1742 729 1708.42 729 1666.96L729 1582Z" fill="#FFFFFF" fill-rule="evenodd"/></g></svg>