<svg width="1322" height="1321" xmlns="http://www.w3.org/2000/svg" xmlns:xlink="http://www.w3.org/1999/xlink" xml:space="preserve" overflow="hidden"><g transform="translate(-332 -577)"><path d="M332 1237.5C332 872.716 627.94 577 993 577 1358.06 577 1654 872.716 1654 1237.5 1654 1602.28 1358.06 1898 993 1898 627.94 1898 332 1602.28 332 1237.5Z" fill="#FF6591" fill-rule="evenodd"/><path d="M1306.99 937.535C1307.54 971.496 1279.56 999.459 1244.5 999.992 1209.43 1000.53 1180.56 973.427 1180.01 939.465 1179.99 938.474 1180 937.483 1180.03 936.493L1196.4 937.011C1195.54 961.917 1215.93 982.775 1241.94 983.598 1267.96 984.42 1289.74 964.896 1290.6 939.989 1290.62 939.254 1290.63 938.519 1290.62 937.784Z" fill="#FF6591" fill-rule="evenodd"/><path d="M818.992 937.535C819.543 971.496 791.563 999.46 756.497 999.993 721.431 1000.53 692.558 973.427 692.008 939.465 691.992 938.475 692 937.484 692.034 936.493L708.403 937.011C707.544 961.918 727.934 982.776 753.945 983.598 779.956 984.421 801.738 964.896 802.597 939.989 802.622 939.254 802.629 938.519 802.617 937.784Z" fill="#FF6591" fill-rule="evenodd"/><path d="M39.6736 0 747.326 0C769.237-1.25244e-14 787 17.7625 787 39.6736L787 561 0 561 0 39.6736C-6.26222e-15 17.7625 17.7625-6.26222e-15 39.6736-1.25244e-14Z" fill="#FF6591" fill-rule="evenodd" transform="matrix(1 0 0 -1 599 1615)"/><path d="M998.972 844 999 844.029 999.028 844 999.028 844.058 1039.35 886.029C1123.32 980.128 1138.68 1046.69 1152.65 1091.15 1223.46 1028.61 1287.04 1012.98 1384.07 1003.65 1404.86 1133.84 1378.65 1238.78 1302.71 1321.16 1388.89 1299.81 1454.28 1316.35 1526 1343.71 1401.7 1556.81 1184.44 1595.5 1055.23 1511.06L1033.7 1494.87 1033.7 1596.72C1033.7 1615.65 1018.36 1631 999.438 1631 980.515 1631 965.175 1615.65 965.175 1596.72L965.175 1494.21 942.772 1511.06C813.557 1595.5 596.299 1556.81 472 1343.71 543.717 1316.35 609.105 1299.81 695.286 1321.16 619.351 1238.78 593.135 1133.84 613.927 1003.65 710.955 1012.98 774.536 1028.61 845.349 1091.15 859.323 1046.69 874.681 980.128 958.646 886.029L998.972 844.058Z" fill="#FFFFFF" fill-rule="evenodd"/><path d="M897 1271C897 1214.11 942.891 1168 999.5 1168 1056.11 1168 1102 1214.11 1102 1271 1102 1327.89 1056.11 1374 999.5 1374 942.891 1374 897 1327.89 897 1271Z" fill="#7C7AE0" fill-rule="evenodd"/></g></svg>