<svg width="1322" height="1321" xmlns="http://www.w3.org/2000/svg" xmlns:xlink="http://www.w3.org/1999/xlink" xml:space="preserve" overflow="hidden"><defs><filter id="fx0" x="-10%" y="-10%" width="120%" height="120%" filterUnits="userSpaceOnUse" primitiveUnits="userSpaceOnUse"><feComponentTransfer color-interpolation-filters="sRGB"><feFuncR type="discrete" tableValues="0 0"/><feFuncG type="discrete" tableValues="0 0"/><feFuncB type="discrete" tableValues="0 0"/><feFuncA type="linear" slope="0.4" intercept="0"/></feComponentTransfer><feGaussianBlur stdDeviation="6.11111 6.11111"/></filter></defs><g transform="translate(-332 -577)"><path d="M332 1237.5C332 872.716 627.94 577 993 577 1358.06 577 1654 872.716 1654 1237.5 1654 1602.28 1358.06 1898 993 1898 627.94 1898 332 1602.28 332 1237.5Z" fill="#FF6591" fill-rule="evenodd"/><path d="M1306.99 937.535C1307.54 971.496 1279.56 999.459 1244.5 999.992 1209.43 1000.53 1180.56 973.427 1180.01 939.465 1179.99 938.474 1180 937.483 1180.03 936.493L1196.4 937.011C1195.54 961.917 1215.93 982.775 1241.94 983.598 1267.96 984.42 1289.74 964.896 1290.6 939.989 1290.62 939.254 1290.63 938.519 1290.62 937.784Z" fill="#FF6591" fill-rule="evenodd"/><path d="M818.992 937.535C819.543 971.496 791.563 999.46 756.497 999.993 721.431 1000.53 692.558 973.427 692.008 939.465 691.992 938.475 692 937.484 692.034 936.493L708.403 937.011C707.544 961.918 727.934 982.776 753.945 983.598 779.956 984.421 801.738 964.896 802.597 939.989 802.622 939.254 802.629 938.519 802.617 937.784Z" fill="#FF6591" fill-rule="evenodd"/><path d="M39.6736 0 747.326 0C769.237-1.25244e-14 787 17.7625 787 39.6736L787 561 0 561 0 39.6736C-6.26222e-15 17.7625 17.7625-6.26222e-15 39.6736-1.25244e-14Z" fill="#FF6591" fill-rule="evenodd" transform="matrix(1 0 0 -1 599 1615)"/><g filter="url(#fx0)" transform="translate(390 815)"><g><path d="M602.469 20.0833 602.5 20.1151 602.531 20.0833 602.531 20.1472 647.103 66.4921C739.911 170.395 756.887 243.89 772.332 292.984 850.603 223.929 920.879 206.665 1028.13 196.373 1051.11 340.128 1022.13 455.994 938.199 546.961 1033.46 523.39 1105.73 541.649 1185 571.861 1047.61 807.163 807.472 849.882 664.649 756.643L640.855 738.764 640.855 851.236C640.855 872.139 623.9 889.083 602.984 889.083 582.068 889.083 565.113 872.139 565.113 851.236L565.113 738.037 540.351 756.643C397.528 849.882 157.389 807.163 20.0001 571.861 99.2697 541.649 171.544 523.39 266.801 546.961 182.869 455.994 153.892 340.128 176.874 196.373 284.12 206.665 354.397 223.929 432.667 292.984 448.113 243.89 465.089 170.395 557.897 66.4921L602.469 20.1472Z" fill="#FFFFFF" fill-rule="evenodd"/></g></g><path d="M992.469 803 992.5 803.032 992.531 803 992.531 803.064 1037.1 849.409C1129.91 953.312 1146.89 1026.81 1162.33 1075.9 1240.6 1006.85 1310.88 989.582 1418.13 979.29 1441.11 1123.04 1412.13 1238.91 1328.2 1329.88 1423.46 1306.31 1495.73 1324.57 1575 1354.78 1437.61 1590.08 1197.47 1632.8 1054.65 1539.56L1030.85 1521.68 1030.85 1634.15C1030.85 1655.06 1013.9 1672 992.984 1672 972.068 1672 955.113 1655.06 955.113 1634.15L955.113 1520.95 930.351 1539.56C787.528 1632.8 547.389 1590.08 410 1354.78 489.27 1324.57 561.544 1306.31 656.801 1329.88 572.869 1238.91 543.892 1123.04 566.874 979.29 674.12 989.582 744.397 1006.85 822.667 1075.9 838.113 1026.81 855.089 953.312 947.897 849.409L992.469 803.064Z" fill="#FFFFFF" fill-rule="evenodd"/><text fill="#7C7AE0" font-family="BIZ UDPGothic,BIZ UDPGothic_MSFontService,sans-serif" font-weight="700" font-size="449" transform="matrix(1 0 0 1 768.242 1439)">あ</text></g></svg>