<svg width="1322" height="1321" xmlns="http://www.w3.org/2000/svg" xmlns:xlink="http://www.w3.org/1999/xlink" xml:space="preserve" overflow="hidden"><defs><filter id="fx0" x="-10%" y="-10%" width="120%" height="120%" filterUnits="userSpaceOnUse" primitiveUnits="userSpaceOnUse"><feComponentTransfer color-interpolation-filters="sRGB"><feFuncR type="discrete" tableValues="0 0"/><feFuncG type="discrete" tableValues="0 0"/><feFuncB type="discrete" tableValues="0 0"/><feFuncA type="linear" slope="0.4" intercept="0"/></feComponentTransfer><feGaussianBlur stdDeviation="6.11111 6.11111"/></filter><filter id="fx1" x="-10%" y="-10%" width="120%" height="120%" filterUnits="userSpaceOnUse" primitiveUnits="userSpaceOnUse"><feComponentTransfer color-interpolation-filters="sRGB"><feFuncR type="discrete" tableValues="0 0"/><feFuncG type="discrete" tableValues="0 0"/><feFuncB type="discrete" tableValues="0 0"/><feFuncA type="linear" slope="0.4" intercept="0"/></feComponentTransfer><feGaussianBlur stdDeviation="6.11111 6.11111"/></filter></defs><g transform="translate(-332 -577)"><path d="M332 1237.5C332 872.716 627.94 577 993 577 1358.06 577 1654 872.716 1654 1237.5 1654 1602.28 1358.06 1898 993 1898 627.94 1898 332 1602.28 332 1237.5Z" fill="#FF6591" fill-rule="evenodd"/><path d="M1306.99 937.535C1307.54 971.496 1279.56 999.459 1244.5 999.992 1209.43 1000.53 1180.56 973.427 1180.01 939.465 1179.99 938.474 1180 937.483 1180.03 936.493L1196.4 937.011C1195.54 961.917 1215.93 982.775 1241.94 983.598 1267.96 984.42 1289.74 964.896 1290.6 939.989 1290.62 939.254 1290.63 938.519 1290.62 937.784Z" fill="#FF6591" fill-rule="evenodd"/><path d="M818.992 937.535C819.543 971.496 791.563 999.46 756.497 999.993 721.431 1000.53 692.558 973.427 692.008 939.465 691.992 938.475 692 937.484 692.034 936.493L708.403 937.011C707.544 961.918 727.934 982.776 753.945 983.598 779.956 984.421 801.738 964.896 802.597 939.989 802.622 939.254 802.629 938.519 802.617 937.784Z" fill="#FF6591" fill-rule="evenodd"/><path d="M39.6736 0 747.326 0C769.237-1.25244e-14 787 17.7625 787 39.6736L787 561 0 561 0 39.6736C-6.26222e-15 17.7625 17.7625-6.26222e-15 39.6736-1.25244e-14Z" fill="#FF6591" fill-rule="evenodd" transform="matrix(1 0 0 -1 599 1615)"/><g filter="url(#fx0)" transform="translate(724 768)"><g><path d="M269 20.0832 318.041 25.0988C432.158 48.7878 518 151.218 518 273.988 518 309.065 510.992 342.482 498.32 372.876 458.423 473.58 392.354 551.853 328.979 629.995L269 707.083 209.021 629.995C145.646 551.853 79.5768 473.58 39.6798 372.876 27.0075 342.482 19.9999 309.065 19.9999 273.988 19.9999 151.218 105.842 48.7878 219.958 25.0988Z" fill="#FFFFFF" fill-rule="evenodd"/></g></g><path d="M993 756 1042.04 761.016C1156.16 784.705 1242 887.135 1242 1009.9 1242 1044.98 1234.99 1078.4 1222.32 1108.79 1182.42 1209.5 1116.35 1287.77 1052.98 1365.91L993 1443 933.021 1365.91C869.646 1287.77 803.577 1209.5 763.68 1108.79 751.008 1078.4 744 1044.98 744 1009.9 744 887.135 829.842 784.705 943.958 761.016Z" fill="#FFFFFF" fill-rule="evenodd"/><path d="M883 1015.5C883 955.025 932.249 906 993 906 1053.75 906 1103 955.025 1103 1015.5 1103 1075.98 1053.75 1125 993 1125 932.249 1125 883 1075.98 883 1015.5Z" fill="#7C7AE0" fill-rule="evenodd"/><g filter="url(#fx1)" transform="translate(561 1289)"><g><path d="M708.636 0C526.212 81.0368 447.85 181.804 417.26 255.567L411.5 273.475 405.74 255.567C375.15 181.804 296.788 81.0368 114.364 0 97.61 104.823 118.734 189.311 179.923 255.643 110.479 238.455 57.7893 251.769 0 273.799 100.159 445.378 275.225 476.527 379.346 408.539L397.398 394.972C401.63 389.258 404.598 385.986 406.83 383.679L411.5 378.56 416.17 383.679C418.403 385.986 421.37 389.258 425.602 394.972L443.654 408.539C547.775 476.527 722.84 445.378 823 273.799 765.211 251.769 712.521 238.455 643.077 255.643 704.266 189.311 725.39 104.823 708.636 0Z" fill="#FFFFFF" fill-rule="evenodd" transform="matrix(-1 0 0 1 843 20.0834)"/></g></g><path d="M708.636 0C526.212 81.0368 447.85 181.804 417.26 255.567L411.5 273.475 405.74 255.567C375.15 181.804 296.788 81.0368 114.364 0 97.61 104.823 118.734 189.311 179.923 255.643 110.479 238.455 57.7893 251.769 0 273.799 100.159 445.378 275.225 476.527 379.346 408.539L397.398 394.972C401.63 389.258 404.598 385.986 406.83 383.679L411.5 378.56 416.17 383.679C418.403 385.986 421.37 389.258 425.602 394.972L443.654 408.539C547.775 476.527 722.84 445.378 823 273.799 765.211 251.769 712.521 238.455 643.077 255.643 704.266 189.311 725.39 104.823 708.636 0Z" fill="#FFFFFF" fill-rule="evenodd" transform="matrix(-1 0 0 1 1404 1277)"/></g></svg>