<svg width="1322" height="1321" xmlns="http://www.w3.org/2000/svg" xmlns:xlink="http://www.w3.org/1999/xlink" xml:space="preserve" overflow="hidden"><defs><filter id="fx0" x="-10%" y="-10%" width="120%" height="120%" filterUnits="userSpaceOnUse" primitiveUnits="userSpaceOnUse"><feComponentTransfer color-interpolation-filters="sRGB"><feFuncR type="discrete" tableValues="0 0"/><feFuncG type="discrete" tableValues="0 0"/><feFuncB type="discrete" tableValues="0 0"/><feFuncA type="linear" slope="0.4" intercept="0"/></feComponentTransfer><feGaussianBlur stdDeviation="6.11111 6.11111"/></filter></defs><g transform="translate(-332 -577)"><path d="M332 1237.5C332 872.716 627.94 577 993 577 1358.06 577 1654 872.716 1654 1237.5 1654 1602.28 1358.06 1898 993 1898 627.94 1898 332 1602.28 332 1237.5Z" fill="#FF6591" fill-rule="evenodd"/><g filter="url(#fx0)" transform="translate(539 788)"><g><path d="M216.39 20.0832C242.533 20.0832 263.726 41.2706 263.726 67.4064L263.726 121.211 657.453 121.211 657.453 67.4064C657.453 41.2706 678.646 20.0832 704.788 20.0832 730.931 20.0832 752.124 41.2706 752.124 67.4064L752.124 121.211 823.878 121.211C859.292 121.211 888 149.912 888 185.317L888 836.978C888 872.382 859.292 901.083 823.878 901.083L84.1219 901.083C48.7083 901.083 19.9999 872.382 19.9999 836.978L19.9999 185.317C19.9999 149.912 48.7083 121.211 84.1219 121.211L169.055 121.211 169.055 67.4064C169.055 41.2706 190.248 20.0832 216.39 20.0832Z" fill="#FFFFFF" fill-rule="evenodd"/></g></g><path d="M755.39 776C781.533 776 802.726 797.187 802.726 823.323L802.726 877.128 1196.45 877.128 1196.45 823.323C1196.45 797.187 1217.65 776 1243.79 776 1269.93 776 1291.12 797.187 1291.12 823.323L1291.12 877.128 1362.88 877.128C1398.29 877.128 1427 905.829 1427 941.234L1427 1592.89C1427 1628.3 1398.29 1657 1362.88 1657L623.122 1657C587.708 1657 559 1628.3 559 1592.89L559 941.234C559 905.829 587.708 877.128 623.122 877.128L708.055 877.128 708.055 823.323C708.055 797.187 729.248 776 755.39 776Z" fill="#FFFFFF" fill-rule="evenodd"/><path d="M1306.99 937.535C1307.54 971.496 1279.56 999.459 1244.5 999.992 1209.43 1000.53 1180.56 973.427 1180.01 939.465 1179.99 938.474 1180 937.483 1180.03 936.493L1196.4 937.011C1195.54 961.917 1215.93 982.775 1241.94 983.598 1267.96 984.42 1289.74 964.896 1290.6 939.989 1290.62 939.254 1290.63 938.519 1290.62 937.784Z" fill="#FF6591" fill-rule="evenodd"/><path d="M818.992 937.535C819.543 971.496 791.563 999.46 756.497 999.993 721.431 1000.53 692.558 973.427 692.008 939.465 691.992 938.475 692 937.484 692.034 936.493L708.403 937.011C707.544 961.918 727.934 982.776 753.945 983.598 779.956 984.421 801.738 964.896 802.597 939.989 802.622 939.254 802.629 938.519 802.617 937.784Z" fill="#FF6591" fill-rule="evenodd"/><path d="M39.6736 0 747.326 0C769.237-1.25244e-14 787 17.7625 787 39.6736L787 561 0 561 0 39.6736C-6.26222e-15 17.7625 17.7625-6.26222e-15 39.6736-1.25244e-14Z" fill="#FF6591" fill-rule="evenodd" transform="matrix(1 0 0 -1 599 1615)"/><path d="M999.483 1086 999.5 1086.02 999.517 1086 999.517 1086.03 1023.96 1111.47C1074.87 1168.51 1084.18 1208.85 1092.65 1235.8 1135.58 1197.89 1174.13 1188.42 1232.96 1182.77 1245.56 1261.67 1229.67 1325.27 1183.63 1375.21 1235.88 1362.27 1275.52 1372.29 1319 1388.87 1243.64 1518.03 1111.93 1541.48 1033.59 1490.3L1020.54 1480.49 1020.54 1542.23C1020.54 1553.7 1011.24 1563 999.765 1563 988.293 1563 978.993 1553.7 978.993 1542.23L978.993 1480.09 965.411 1490.3C887.073 1541.48 755.358 1518.03 680 1388.87 723.479 1372.29 763.122 1362.27 815.37 1375.21 769.333 1325.27 753.44 1261.67 766.045 1182.77 824.869 1188.42 863.416 1197.89 906.347 1235.8 914.819 1208.85 924.13 1168.51 975.035 1111.47L999.483 1086.03Z" fill="#FFFFFF" fill-rule="evenodd"/><path d="M937 1345C937 1310.76 964.982 1283 999.5 1283 1034.02 1283 1062 1310.76 1062 1345 1062 1379.24 1034.02 1407 999.5 1407 964.982 1407 937 1379.24 937 1345Z" fill="#7C7AE0" fill-rule="evenodd"/></g></svg>